<svg width="20" height="17" viewBox="0 0 20 17" fill="none" xmlns="http://www.w3.org/2000/svg">
    <path
        d="M9.5 17C8.66667 17 7.95833 16.7083 7.375 16.125C6.79167 15.5417 6.5 14.8333 6.5 14H8.5C8.5 14.2833 8.59583 14.5208 8.7875 14.7125C8.97917 14.9042 9.21667 15 9.5 15C9.78333 15 10.0208 14.9042 10.2125 14.7125C10.4042 14.5208 10.5 14.2833 10.5 14C10.5 13.7167 10.4042 13.4792 10.2125 13.2875C10.0208 13.0958 9.78333 13 9.5 13H0V11H9.5C10.3333 11 11.0417 11.2917 11.625 11.875C12.2083 12.4583 12.5 13.1667 12.5 14C12.5 14.8333 12.2083 15.5417 11.625 16.125C11.0417 16.7083 10.3333 17 9.5 17ZM0 7V5H13.5C13.9333 5 14.2917 4.85833 14.575 4.575C14.8583 4.29167 15 3.93333 15 3.5C15 3.06667 14.8583 2.70833 14.575 2.425C14.2917 2.14167 13.9333 2 13.5 2C13.0667 2 12.7083 2.14167 12.425 2.425C12.1417 2.70833 12 3.06667 12 3.5H10C10 2.51667 10.3375 1.6875 11.0125 1.0125C11.6875 0.3375 12.5167 0 13.5 0C14.4833 0 15.3125 0.3375 15.9875 1.0125C16.6625 1.6875 17 2.51667 17 3.5C17 4.48333 16.6625 5.3125 15.9875 5.9875C15.3125 6.6625 14.4833 7 13.5 7H0ZM16.5 15V13C16.9333 13 17.2917 12.8583 17.575 12.575C17.8583 12.2917 18 11.9333 18 11.5C18 11.0667 17.8583 10.7083 17.575 10.425C17.2917 10.1417 16.9333 10 16.5 10H0V8H16.5C17.4833 8 18.3125 8.3375 18.9875 9.0125C19.6625 9.6875 20 10.5167 20 11.5C20 12.4833 19.6625 13.3125 18.9875 13.9875C18.3125 14.6625 17.4833 15 16.5 15Z"
        fill="#00DAF3" />
</svg>
